<svg viewBox="0 0 256 256" xmlns="http://www.w3.org/2000/svg"><path d="m44.31 77.08c15.69-11.08 160.1-11.31 170.35 2.86s11.53 110.13-4.94 117.92-152.35 12.78-165.41-1.26-16.68-107.72 0-119.52z" fill="#191919" stroke="#191919" stroke-linejoin="round" stroke-width="16"/><path d="m44.31 77.08c15.69-11.08 160.1-11.31 170.35 2.86s11.53 110.13-4.94 117.92-152.35 12.78-165.41-1.26-16.68-107.72 0-119.52z" fill="#fff"/><path d="m23.61 67.81c-10.11 3.36-2 73.55 8.15 80.52 3.32 2.28 1.63 6.54 0 8.59-6.71 8.42-21 44.51-19.07 47.58 4.88 7.78 18.84 7.44 22.09 6.27 2.25-.81 5.41-1.76 7-.51 4.07 3.24 24.13 1.85 26.28-4.59 1-2.9-20-44.24-26.75-51.3-1.87-1.95-.39-3.39 1.63-5.11 6.27-5.34 40.45-61.26 43.06-66.61s4.57-18-6.28-19.5c-8.85-1.23-46.34 1.41-56.11 4.66z" fill="#191919" stroke="#191919" stroke-linejoin="round" stroke-width="16"/><path d="m232.47 67.81c10.11 3.36 2 73.55-8.15 80.52-3.32 2.28-1.63 6.54 0 8.59 6.71 8.42 20.54 44.27 19.07 47.58-2.6 5.86-9.53 6.32-13 5.57-2.42-.52-4.63-1.93-7-.51-5.57 3.36-33.2 2.54-35.35-3.9-1-2.9 20-44.24 26.75-51.3 1.87-1.95.39-3.39-1.63-5.11-6.28-5.34-40.47-61.28-43-66.62s-4.57-18 6.28-19.5c8.77-1.21 46.26 1.43 56.03 4.68z" fill="#191919" stroke="#191919" stroke-linejoin="round" stroke-width="16"/><path d="m23.61 67.81c-10.11 3.36-2 73.55 8.15 80.52 3.32 2.28 1.63 6.54 0 8.59-6.71 8.42-21 44.51-19.07 47.58 4.88 7.78 18.84 7.44 22.09 6.27 2.25-.81 5.41-1.76 7-.51 4.07 3.24 24.13 1.85 26.28-4.59 1-2.9-20-44.24-26.75-51.3-1.87-1.95-.39-3.39 1.63-5.11 6.27-5.34 40.45-61.26 43.06-66.61s4.57-18-6.28-19.5c-8.85-1.23-46.34 1.41-56.11 4.66z" fill="#e83a2a"/><path d="m31 147.69c-2.61.64-2.35 6.57 0 9.35s10.67 2.53 12.31-.41 3.34-6.14.56-8.46c-1.32-1.1-3.64.5-6.14.51-2.79.01-5.35-1.32-6.73-.99z" fill="#fff"/><path d="m232.47 67.81c10.11 3.36 2 73.55-8.15 80.52-3.32 2.28-1.63 6.54 0 8.59 6.71 8.42 20.54 44.27 19.07 47.58-2.6 5.86-9.53 6.32-13 5.57-2.42-.52-4.63-1.93-7-.51-5.57 3.36-33.2 2.54-35.35-3.9-1-2.9 20-44.24 26.75-51.3 1.87-1.95.39-3.39-1.63-5.11-6.28-5.34-40.47-61.28-43-66.62s-4.57-18 6.28-19.5c8.77-1.21 46.26 1.43 56.03 4.68z" fill="#e83a2a"/><path d="m225.07 147.69c2.61.64 2.35 6.57 0 9.35s-10.31 1.95-12.31-.41c-2.17-2.57-3.3-7-.56-8.46 2.14-1.17 3.13.86 6.14.51s5.36-1.32 6.73-.99z" fill="#fff"/><path d="m111 105.56c-4.48 2.84-3.14 60.88-.55 64.3s51.55-27.4 51.55-32.86-46.55-34.28-51-31.44z" fill="#e83a2a"/></svg>