<svg viewBox="0 0 256 256" xmlns="http://www.w3.org/2000/svg"><path d="m129.27 142.19-85.32-46.82a2.31 2.31 0 0 0 -3.43 2c-.41 18-2 93.55.09 96 3.31 3.88 85.08 51.16 88.67 51.16s84.53-48.76 88.67-51.16c3.66-2.11.86-78.2.15-96.08a2.32 2.32 0 0 0 -3.43-1.93z" fill="#191919" stroke="#191919" stroke-linejoin="round" stroke-width="16"/><path d="m40.6 91.49 88.67-47.29 88.67 47.29-88.67 48.65z" fill="#fff"/><path d="m130.52 41.08v95.94l-88.67-48.66z" fill="#e6e6e6"/><path d="m129.27 142.19-88.67-48.66s-2.38 97 0 99.81c3.31 3.88 85.08 51.16 88.67 51.16s84.53-48.76 88.67-51.16 0-99.81 0-99.81z" fill="#e83a2a"/><path d="m129.27 142.19c-1 2.06-2 102.81 0 102.31 6.35-1.56 85.32-46.93 89-51.75 1.58-2.09 2.39-97.93-.31-99.22s-87.66 46.6-88.69 48.66z" fill="#d32920"/><path d="m217.42 88c4.59-2.53 29.46-16.33 28.15-17.09s-87.67-45.94-89.85-46.6c-2-.61-24.48 14.1-28.13 16.5-3.76-2.61-30.82-21.24-33.9-19.52-3.31 1.8-83.39 46.48-86.26 48.14-2.64 1.57 26.79 16.36 31.34 18.64-4.25 2.15-29.69 14.59-28.12 15.49s83.82 49.44 88.22 49.92c2.83.31 25.8-14.24 28.82-16.24 3.38 2.24 31 20.48 33.76 18.92l87.13-50c1.61-.88-25.92-15.44-31.16-18.16zm-89.73 48.86-87.75-48.81 87.59-46.72 88.31 46.58z" fill="#191919" stroke="#191919" stroke-linejoin="round" stroke-width="16"/><path d="m218.42 88c .08-1.3 28.46-16.33 27.15-17.09s-87.67-45.94-89.85-46.6c-2-.61-27.54 16.43-28.13 16.5s-30.83-21.28-33.9-19.56c-3.31 1.84-83.39 46.52-86.26 48.18-2.64 1.57 31.27 17.8 31.34 18.64s-29.69 14.59-28.13 15.49 83.83 49.44 88.23 49.92c2.83.31 27.92-16.24 28.82-16.24s31 20.48 33.76 18.92l87.13-50c1.61-.88-30.24-16.89-30.16-18.16zm-90.73 48.86c-1-.08-87.72-48.14-87.74-48.78s87-46.63 87.59-46.72 88.32 45.33 88.31 46.58-87.15 48.97-88.16 48.89z" fill="#fff"/><path d="m72.15 187.68-.44-35.68c0-2.23 2.05-2.7 3.71-.82l25.44 28.82c1.59 1.81 1.62 4.47.06 4.89l-25 6.81c-1.63.49-3.74-1.79-3.77-4.02z" fill="#fff"/><path d="m128.67 142.67c-.67 17.17-1 77.67.61 101.83" fill="#d32920" stroke="#191919" stroke-linecap="round" stroke-linejoin="round" stroke-width="8"/></svg>