<svg viewBox="0 0 256 256" xmlns="http://www.w3.org/2000/svg"><path d="m220.41 74.48c-8.06-10.14-28.14-12.09-33.6-12.7s-6.82-2.2-4.3-6.21 22.35-24.87 22.35-24.87c2.37-3.18-6.84-8.25-9.18-4.69 0 0-27.77 30.38-34.65 32.59-1.32.42-69.15 1.87-71.29.57-5.27-3.17-22.88-27.93-22.88-27.93-2.45-2.93-11.66 1.34-9.18 4.69 0 0 12.13 18.47 14.49 21.93s.85 5.41-4.36 6.08-25 1-34 14.78c-8.24 12.71-10.83 117 1 129.16 9.07 9.31 13.68 7.55 19.45 11.26 3.9 2.59 2 14.38 6.2 18.71s37.75 6.06 67.92 5.7 62.42-2.28 66.48-5.7 2.26-17.26 6-19.42c3.66-2.51 13.26-1.94 21-10.55 11.41-12.55 7.98-121.55-1.45-133.4z" fill="#191919" stroke="#191919" stroke-linejoin="round" stroke-width="16"/><path d="m220.41 74.48c-8.06-10.14-28.14-12.09-33.6-12.7s-6.82-2.2-4.3-6.21 22.35-24.87 22.35-24.87c2.37-3.18-6.84-8.25-9.18-4.69 0 0-27.77 30.38-34.65 32.59-1.32.42-69.15 1.87-71.29.57-5.27-3.17-22.88-27.93-22.88-27.93-2.45-2.93-11.66 1.34-9.18 4.69 0 0 12.13 18.47 14.49 21.93s.85 5.41-4.36 6.08-25 1-34 14.78c-8.24 12.71-10.83 117 1 129.16 9.07 9.31 13.68 7.55 19.45 11.26 3.9 2.59 2 14.38 6.2 18.71s37.75 6.06 67.92 5.7 62.42-2.28 66.48-5.7 2.26-17.26 6-19.42c3.66-2.51 13.26-1.94 21-10.55 11.41-12.55 7.98-121.55-1.45-133.4z" fill="#e83a2a"/><path d="m225.44 216.77s.12-.06 0 0-.01.01 0 0z" fill="#e83a2a"/><path d="m200.18 94.85c-10.45-13.09-134.62-13.12-145.09 0-7.25 9.09-9.79 85.68-1.2 95.54 11.54 13.26 133.28 10.74 147.5 0 10.42-7.88 6.05-86.45-1.21-95.54z" fill="#fff" stroke="#191919" stroke-linejoin="round" stroke-width="8"/><path d="m56.81 13.09c-.38-1.33-4.81-7.81-6.23-8.82s-6.48 3.38-6.47 4.49 5 7.93 6.23 8.82 6.84-3.16 6.47-4.49z" fill="#191919"/><path d="m40.43 41.26c-1.33.39-7.78 4.86-8.77 6.29s3.41 6.45 4.53 6.45 7.89-5 8.77-6.29-3.21-6.84-4.53-6.45z" fill="#191919"/><path d="m42.69 27.33c2.53 1.37 1.54 7.23-1.59 7.42s-19.2-2.53-21.37-3.69-1.84-7 1.59-7.42 18.59 2.19 21.37 3.69z" fill="#191919"/><path d="m99.6 15.41c2.33 0 4.72 5.42 2.81 7s-13.65 6.84-15.65 6.87-4.79-5.07-2.81-7 13.05-6.86 15.65-6.87z" fill="#191919"/><path d="m183.85 14.74c-.95-1-4.24-8.14-4.37-9.87s6.22-3.82 7.17-3.25 4.24 8.38 4.35 9.87-6.21 4.25-7.15 3.25z" fill="#191919"/><path d="m218.27 41.26c1.33.39 7.78 4.86 8.77 6.29s-3.42 6.45-4.53 6.45-7.89-5-8.77-6.29 3.2-6.84 4.53-6.45z" fill="#191919"/><path d="m220.78 26.66c-2.84 1.43-1.86 7.28 1.62 7.42s21.44-2.93 23.88-4.14 2.2-7-1.62-7.42-20.76 2.57-23.88 4.14z" fill="#191919"/><path d="m158.67 18.78c-2.16.88-2.28 6.82.12 7.59s15.23 1.07 17.09.33 2.47-6.52-.12-7.59-14.76-1.3-17.09-.33z" fill="#191919"/></svg>