<svg viewBox="0 0 186.54 370.01" xmlns="http://www.w3.org/2000/svg"><path d="m98.25 6.13c-36 2-58.83 56.83-61.41 62.34s-11.08 2.53-9.17-4.11 7.65-23.49 14.12-35.36c4.2-7.7-5.22-11.55-9.72-3.47-7.9 14.2-39.35 64.37-30.52 173.94 9.63 119.63 38.69 172.19 86.53 170.53 51.41-1.81 95.52-75.78 98.35-195.24 2.85-120.48-49.23-170.76-88.18-168.63zm48 238.35c-19.7 57.06-42.07 67.52-62.25 58.25-9.68-4.44-9 5.87-4.06 9.76 6.9 5.44 17.67 7.06 26.94 4 5.87-1.91 10.34 2.09 2.93 8.09-11.22 9.08-32.86 13-48.74-10.82-17.57-26.31-26.58-92.34-22.59-137s24-123.7 53.31-127.53c28.18-3.67 44.47 47.25 37.65 93.94-2.49 17 10.53 10.82 12 2.71 1.75-9.41 1.09-22.59 1.15-30.29s5.69-13.93 8.29 0c2.86 15.22 4.97 101.15-4.61 128.88zm-103.58-233.22c3.05-5.26 5.71-8.84 10.16-10.85 3.87-1.75 9.17 2.41 4.06 7.22-2.36 2.24-4.58 6.12-7.31 8.41-3.74 3.13-8.91-1.36-6.91-4.78zm28.9 285.82c1.7 2.93-3.11 7.82-6.06 5.56s-6.4-10.64-1.7-13.64c3.79-2.38 6.05 5.15 7.75 8.08zm-6.49-18.68c1 3.23-5.78 7.57-7.13 4.11-1.76-4.5-.8-7.72 1.67-9.08 2.03-1.12 4.44 1.74 5.46 4.97z" fill="#5e4a6e"/></svg>